<svg xmlns="http://www.w3.org/2000/svg" xmlns:xlink="http://www.w3.org/1999/xlink" version="1.1" x="0px" y="0px" viewBox="0 0 100 125" enable-background="new 0 0 100 100" xml:space="preserve"><g><path fill="#E3D26F" d="M33.344,55.023l0.159,0.075c0.09,0.044,0.129,0.153,0.087,0.243l-1.153,2.429c-0.042,0.091-0.152,0.13-0.242,0.087   l-0.159-0.074c-0.091-0.045-0.131-0.153-0.088-0.244l1.153-2.428C33.143,55.018,33.252,54.98,33.344,55.023z"/></g><g><path fill="#E3D26F" d="M37.703,54.201l0.112-0.133c0.066-0.076,0.183-0.085,0.26-0.021l2.042,1.745c0.079,0.066,0.084,0.182,0.022,0.259   l-0.117,0.132c-0.063,0.078-0.179,0.086-0.257,0.021l-2.042-1.745C37.647,54.395,37.637,54.279,37.703,54.201z"/></g><g><path fill="#E3D26F" d="M31.382,51.201l0.031-0.171c0.019-0.101-0.047-0.194-0.146-0.214l-2.644-0.479c-0.099-0.018-0.194,0.049-0.215,0.148   l-0.028,0.172c-0.021,0.1,0.047,0.195,0.148,0.211l2.644,0.48C31.27,51.367,31.365,51.302,31.382,51.201z"/></g><g><path fill="#E3D26F" d="M48.057,62.311l0.172,0.031c0.101,0.019,0.166,0.114,0.147,0.214l-0.482,2.643c-0.017,0.1-0.112,0.166-0.211,0.147   l-0.171-0.031c-0.099-0.018-0.166-0.113-0.148-0.213l0.482-2.645C47.863,62.359,47.959,62.293,48.057,62.311z"/></g><g><path fill="#E3D26F" d="M52.054,60.385l0.073-0.158c0.047-0.091,0.154-0.132,0.248-0.086l2.424,1.152c0.093,0.043,0.131,0.153,0.084,0.244   l-0.072,0.158c-0.043,0.092-0.152,0.129-0.242,0.087l-2.428-1.154C52.051,60.584,52.012,60.475,52.054,60.385z"/></g><g><path fill="#E3D26F" d="M45.17,59.131l-0.014-0.176c-0.01-0.1-0.099-0.174-0.201-0.165l-2.675,0.226c-0.101,0.008-0.176,0.095-0.168,0.196   l0.014,0.175c0.012,0.101,0.099,0.176,0.2,0.166l2.676-0.225C45.104,59.32,45.177,59.231,45.17,59.131z"/></g><g><path fill="#E3D26F" d="M70.22,58.68l0.122-0.125c0.066-0.072,0.184-0.076,0.258-0.006l1.94,1.858c0.073,0.07,0.075,0.187,0.005,0.261   l-0.121,0.126c-0.07,0.073-0.188,0.074-0.258,0.004l-1.941-1.857C70.152,58.87,70.149,58.755,70.22,58.68z"/></g><g><path fill="#E3D26F" d="M70.812,54.285l-0.086-0.15c-0.055-0.087-0.025-0.199,0.059-0.25l2.303-1.388c0.085-0.054,0.197-0.025,0.25,0.06   l0.091,0.151c0.054,0.087,0.025,0.2-0.063,0.251l-2.299,1.389C70.979,54.399,70.867,54.371,70.812,54.285z"/></g><g><path fill="#E3D26F" d="M65.976,59.337l-0.155-0.083c-0.086-0.049-0.199-0.018-0.25,0.073l-1.285,2.356c-0.051,0.089-0.018,0.2,0.073,0.25   l0.151,0.082c0.088,0.049,0.2,0.016,0.25-0.072l1.286-2.357C66.096,59.497,66.062,59.387,65.976,59.337z"/></g><g><path fill="#E3D26F" d="M71.598,39.938l-0.173,0.012c-0.103,0.008-0.19-0.068-0.196-0.169l-0.193-2.679c-0.008-0.102,0.07-0.19,0.169-0.197   l0.175-0.013c0.102-0.007,0.191,0.069,0.196,0.17l0.191,2.679C71.771,39.842,71.699,39.929,71.598,39.938z"/></g><g><path fill="#E3D26F" d="M68.209,42.798l-0.037,0.172c-0.017,0.1-0.112,0.165-0.213,0.146l-2.637-0.515c-0.1-0.019-0.165-0.115-0.146-0.215   l0.032-0.171c0.021-0.1,0.117-0.164,0.219-0.145l2.637,0.513C68.162,42.604,68.226,42.699,68.209,42.798z"/></g><g><path fill="#E3D26F" d="M75.187,42.298l0.056,0.166c0.035,0.094,0.141,0.146,0.236,0.112l2.535-0.886c0.096-0.032,0.146-0.138,0.111-0.232   l-0.056-0.166c-0.035-0.094-0.138-0.145-0.231-0.112l-2.539,0.886C75.203,42.098,75.156,42.203,75.187,42.298z"/></g><g><path fill="#E3D26F" d="M88.689,50.766l0.127-0.121c0.074-0.068,0.191-0.066,0.262,0.008L90.93,52.6c0.066,0.073,0.066,0.188-0.008,0.259   l-0.126,0.12c-0.073,0.07-0.19,0.066-0.261-0.006l-1.849-1.948C88.616,50.951,88.619,50.836,88.689,50.766z"/></g><g><path fill="#E3D26F" d="M89.49,46.402l-0.084-0.153c-0.045-0.09-0.014-0.199,0.074-0.249l2.363-1.278c0.092-0.048,0.201-0.015,0.248,0.073   l0.085,0.154c0.046,0.089,0.015,0.2-0.073,0.25l-2.362,1.277C89.65,46.524,89.541,46.492,89.49,46.402z"/></g><g><path fill="#E3D26F" d="M84.418,51.221l-0.146-0.09c-0.088-0.051-0.2-0.023-0.254,0.062l-1.395,2.295c-0.054,0.086-0.025,0.198,0.059,0.25   l0.152,0.094c0.084,0.051,0.197,0.023,0.248-0.062l1.4-2.295C84.535,51.389,84.508,51.275,84.418,51.221z"/></g><g><path fill="#E3D26F" d="M24.526,39.199l-0.136,0.104c-0.082,0.061-0.197,0.044-0.257-0.038l-1.603-2.154c-0.061-0.083-0.047-0.197,0.038-0.258   l0.138-0.104c0.082-0.061,0.197-0.044,0.256,0.038l1.603,2.156C24.625,39.025,24.611,39.139,24.526,39.199z"/></g><g><path fill="#E3D26F" d="M23.209,43.436l0.062,0.161c0.04,0.096-0.005,0.201-0.101,0.238l-2.5,0.984c-0.094,0.038-0.2-0.009-0.239-0.103   l-0.062-0.162c-0.037-0.094,0.01-0.201,0.104-0.238l2.5-0.985C23.064,43.295,23.172,43.341,23.209,43.436z"/></g><g><path fill="#E3D26F" d="M28.823,39.26l0.138,0.108c0.08,0.063,0.197,0.049,0.259-0.031l1.664-2.109c0.061-0.08,0.049-0.196-0.033-0.257   l-0.136-0.108c-0.08-0.062-0.192-0.049-0.257,0.031l-1.662,2.109C28.731,39.083,28.745,39.198,28.823,39.26z"/></g><g><path fill="#E3D26F" d="M56.768,45.31h-0.174c-0.104,0-0.184-0.083-0.184-0.185l0.006-2.687c0-0.102,0.084-0.183,0.188-0.183l0.172,0.001   c0.102,0,0.184,0.083,0.184,0.185l-0.009,2.686C56.95,45.229,56.87,45.31,56.768,45.31z"/></g><g><path fill="#E3D26F" d="M53.176,47.911l-0.047,0.169c-0.027,0.099-0.126,0.154-0.225,0.128l-2.591-0.707c-0.099-0.027-0.155-0.128-0.129-0.226   l0.045-0.168c0.028-0.098,0.126-0.155,0.225-0.129l2.591,0.708C53.144,47.713,53.204,47.814,53.176,47.911z"/></g><g><path fill="#E3D26F" d="M60.17,47.93l0.047,0.169c0.023,0.099,0.127,0.155,0.225,0.131l2.596-0.695c0.098-0.026,0.154-0.126,0.129-0.224   l-0.045-0.168c-0.025-0.099-0.127-0.156-0.225-0.13l-2.596,0.693C60.203,47.732,60.146,47.832,60.17,47.93z"/></g><g><path fill="#E3D26F" d="M50.476,45.04l-0.121-0.127c-0.07-0.073-0.066-0.189,0.009-0.259l1.946-1.85c0.075-0.07,0.191-0.066,0.262,0.006   l0.118,0.127c0.07,0.074,0.067,0.189-0.006,0.26l-1.949,1.85C50.662,45.115,50.547,45.113,50.476,45.04z"/></g><g><path fill="#E3D26F" d="M46.112,44.236l-0.15,0.084c-0.093,0.047-0.201,0.014-0.25-0.075l-1.277-2.362c-0.047-0.089-0.014-0.201,0.075-0.249   l0.155-0.083c0.088-0.048,0.201-0.016,0.246,0.074l1.28,2.363C46.235,44.078,46.204,44.189,46.112,44.236z"/></g><g><path fill="#E3D26F" d="M50.932,49.312l-0.09,0.148c-0.054,0.086-0.028,0.198,0.059,0.252l2.293,1.398c0.086,0.053,0.199,0.025,0.252-0.062   l0.092-0.149c0.053-0.087,0.023-0.199-0.061-0.252l-2.295-1.396C51.098,49.197,50.984,49.225,50.932,49.312z"/></g><path fill="#5FBB97" d="M83.793,44.095l0.926,0.851c0.041,0.016,0.084,0.032,0.126,0.051c0.245,0.105,0.474,0.239,0.688,0.398  c0.264,0.193,0.51,0.412,0.734,0.648c0.225,0.237,0.434,0.494,0.611,0.768c0.148,0.221,0.271,0.459,0.361,0.709  c0.012,0.023,0.02,0.047,0.025,0.072l0.352,1.049c0.05,0.146,0.043,0.306-0.014,0.449c-0.129,0.34-0.514,0.508-0.855,0.373  l-1.029-0.401c-0.025-0.009-0.045-0.019-0.07-0.028c-0.246-0.105-0.475-0.238-0.688-0.398c-0.265-0.194-0.509-0.411-0.733-0.648  c-0.226-0.238-0.434-0.494-0.613-0.767c-0.146-0.223-0.271-0.46-0.361-0.71c-0.015-0.041-0.029-0.08-0.043-0.123l-1.242-1.494  l-16.908,7.393l0.917,0.768c0.045,0.014,0.087,0.027,0.13,0.045c0.25,0.094,0.488,0.217,0.707,0.365  c0.273,0.182,0.529,0.387,0.766,0.613s0.453,0.475,0.647,0.738c0.157,0.214,0.288,0.445,0.394,0.69  c0.012,0.024,0.021,0.048,0.028,0.071l0.401,1.033c0.051,0.143,0.056,0.302,0.006,0.447c-0.115,0.347-0.488,0.531-0.836,0.416  l-1.048-0.355c-0.025-0.008-0.05-0.016-0.07-0.025c-0.251-0.094-0.489-0.217-0.71-0.363c-0.271-0.184-0.527-0.389-0.764-0.615  c-0.234-0.227-0.453-0.473-0.646-0.738c-0.158-0.215-0.287-0.445-0.395-0.691c-0.017-0.039-0.033-0.078-0.047-0.121l-1.351-1.479  c-4.008,1.568-8.39,1.924-12.597,1.02l-0.176,1.566c0.01,0.043,0.024,0.086,0.032,0.132c0.059,0.259,0.087,0.524,0.087,0.79  c-0.003,0.328-0.031,0.655-0.091,0.978c-0.061,0.321-0.145,0.638-0.26,0.946c-0.091,0.249-0.211,0.488-0.359,0.711  c-0.014,0.021-0.028,0.041-0.042,0.062L49.14,60.19c-0.089,0.126-0.22,0.216-0.37,0.255c-0.352,0.094-0.713-0.117-0.806-0.469  l-0.284-1.07c-0.007-0.025-0.011-0.049-0.017-0.074c-0.061-0.26-0.089-0.524-0.084-0.791c0-0.328,0.031-0.654,0.09-0.977  c0.056-0.322,0.145-0.641,0.257-0.946c0.092-0.251,0.215-0.488,0.359-0.71c0.025-0.037,0.049-0.072,0.077-0.107l0.417-1.669  c-1.749-0.536-3.427-1.29-4.992-2.245l-5.881-3.584l-0.56,1.42c0,0.045,0,0.092-0.003,0.137c-0.011,0.266-0.053,0.529-0.124,0.786  c-0.084,0.316-0.2,0.624-0.34,0.92s-0.307,0.577-0.495,0.845c-0.154,0.219-0.334,0.416-0.531,0.594  c-0.021,0.018-0.04,0.033-0.059,0.049l-0.855,0.703c-0.12,0.1-0.268,0.152-0.422,0.152c-0.366-0.002-0.658-0.299-0.658-0.664  l0.008-1.105c0-0.026,0-0.052,0-0.076c0.01-0.267,0.052-0.531,0.123-0.788c0.088-0.315,0.201-0.623,0.342-0.919  c0.141-0.295,0.305-0.578,0.495-0.846c0.155-0.217,0.335-0.416,0.535-0.592c0.031-0.028,0.063-0.057,0.098-0.083l0.818-1.466  c-2.014-0.937-4.323-0.997-6.384-0.167l-10.693,4.312l0.886,0.744c0.045,0.012,0.087,0.027,0.129,0.043  c0.25,0.096,0.485,0.219,0.706,0.365c0.275,0.184,0.531,0.389,0.768,0.615c0.235,0.227,0.453,0.474,0.647,0.736  c0.158,0.215,0.287,0.447,0.394,0.691c0.01,0.025,0.02,0.049,0.028,0.072l0.396,1.032c0.056,0.144,0.059,0.302,0.011,0.448  c-0.117,0.346-0.489,0.531-0.838,0.414l-1.046-0.354c-0.025-0.008-0.051-0.017-0.07-0.025c-0.25-0.096-0.489-0.217-0.711-0.365  c-0.27-0.183-0.526-0.389-0.762-0.614c-0.236-0.227-0.453-0.474-0.647-0.737c-0.157-0.215-0.292-0.447-0.394-0.691  c-0.017-0.039-0.035-0.08-0.049-0.121l-1.357-1.484L8.045,55.51l-0.244-0.607l20.859-8.407l-0.89-1.039  c-0.038-0.02-0.08-0.042-0.118-0.064c-0.229-0.136-0.445-0.296-0.637-0.479c-0.239-0.225-0.457-0.471-0.651-0.733  c-0.197-0.262-0.368-0.542-0.512-0.834c-0.121-0.238-0.215-0.49-0.276-0.748c-0.005-0.025-0.014-0.05-0.017-0.075l-0.222-1.084  c-0.031-0.15-0.005-0.308,0.067-0.444c0.171-0.321,0.574-0.442,0.893-0.269l0.975,0.523c0.024,0.014,0.045,0.025,0.066,0.038  c0.232,0.134,0.443,0.294,0.637,0.478c0.239,0.225,0.456,0.471,0.652,0.733c0.194,0.263,0.366,0.543,0.515,0.835  c0.118,0.238,0.211,0.488,0.273,0.747c0.011,0.042,0.018,0.085,0.028,0.128l1.035,1.604c2.337-0.68,4.852-0.344,6.933,0.924  l5.979,3.646l1.263-1.371c0.017-0.043,0.031-0.084,0.047-0.127c0.11-0.243,0.244-0.475,0.402-0.688  c0.193-0.265,0.411-0.51,0.65-0.735c0.236-0.226,0.492-0.43,0.766-0.611c0.221-0.146,0.46-0.268,0.71-0.361  c0.021-0.008,0.045-0.018,0.07-0.025l1.052-0.348c0.144-0.05,0.305-0.044,0.446,0.012c0.342,0.133,0.511,0.516,0.375,0.855  L48.77,48.01c-0.007,0.023-0.018,0.048-0.028,0.072c-0.105,0.242-0.239,0.475-0.398,0.688c-0.197,0.263-0.414,0.509-0.65,0.733  c-0.239,0.227-0.495,0.431-0.766,0.612c-0.225,0.146-0.46,0.267-0.71,0.36c-0.042,0.017-0.082,0.029-0.124,0.041l-1.027,0.854  c3.267,1.771,6.944,2.652,10.659,2.561l-0.107-1.67c-0.02-0.039-0.039-0.081-0.057-0.123c-0.104-0.245-0.179-0.501-0.225-0.764  c-0.053-0.322-0.08-0.65-0.08-0.978s0.03-0.653,0.086-0.976c0.045-0.264,0.125-0.52,0.229-0.764c0.012-0.024,0.022-0.047,0.032-0.07  l0.472-1c0.066-0.139,0.18-0.252,0.32-0.316c0.328-0.153,0.72-0.01,0.875,0.319l0.467,1.003c0.011,0.023,0.021,0.047,0.031,0.07  c0.104,0.246,0.18,0.502,0.226,0.764c0.056,0.322,0.085,0.65,0.08,0.977c0,0.328-0.028,0.655-0.087,0.978  c-0.045,0.261-0.124,0.518-0.229,0.764c-0.014,0.039-0.036,0.079-0.053,0.116l-0.109,1.541c2.109-0.24,4.174-0.795,6.117-1.645  l7.52-3.288l-0.267-1.913c-0.021-0.04-0.042-0.079-0.063-0.12c-0.122-0.236-0.218-0.486-0.281-0.745  c-0.08-0.316-0.131-0.642-0.154-0.968s-0.019-0.655,0.014-0.979c0.028-0.267,0.084-0.526,0.174-0.778  c0.005-0.025,0.016-0.049,0.023-0.073l0.398-1.032c0.056-0.144,0.156-0.265,0.295-0.339c0.314-0.179,0.72-0.064,0.896,0.254  l0.542,0.966c0.014,0.021,0.025,0.045,0.035,0.067c0.121,0.236,0.217,0.486,0.281,0.745c0.08,0.316,0.131,0.642,0.154,0.968  s0.018,0.655-0.014,0.98c-0.029,0.266-0.085,0.527-0.174,0.777c-0.014,0.042-0.027,0.083-0.045,0.122l0.008,1.272l13.265-5.798  l0.259,0.598L83.793,44.095z M36.869,49.212l-1.093-0.519c-0.035,0.025-0.066,0.052-0.098,0.08c-0.173,0.152-0.328,0.324-0.46,0.514  c-0.173,0.242-0.328,0.503-0.454,0.773c-0.131,0.271-0.235,0.553-0.314,0.84c-0.062,0.223-0.098,0.451-0.104,0.682  c-0.004,0.02-0.004,0.039-0.004,0.059l-0.004,1.106c0,0.102,0.082,0.185,0.183,0.185c0.042,0,0.084-0.014,0.117-0.043l0.854-0.703  c0.014-0.012,0.033-0.025,0.047-0.037c0.173-0.154,0.328-0.326,0.457-0.514c0.176-0.244,0.326-0.504,0.457-0.773  c0.126-0.273,0.232-0.555,0.313-0.842c0.059-0.223,0.094-0.449,0.104-0.68C36.869,49.298,36.869,49.254,36.869,49.212z   M49.952,55.783l-1.191-0.218c-0.028,0.034-0.053,0.069-0.074,0.104c-0.127,0.191-0.232,0.397-0.314,0.613  c-0.101,0.281-0.183,0.572-0.235,0.867c-0.052,0.293-0.08,0.594-0.084,0.893c0,0.23,0.023,0.46,0.074,0.684  c0.006,0.02,0.01,0.039,0.014,0.058l0.284,1.07c0.025,0.099,0.126,0.155,0.225,0.131c0.039-0.011,0.077-0.036,0.101-0.071  l0.641-0.902c0.014-0.016,0.024-0.031,0.034-0.047c0.126-0.193,0.229-0.4,0.31-0.615c0.107-0.281,0.183-0.57,0.236-0.866  c0.056-0.294,0.084-0.595,0.084-0.894c0.002-0.23-0.021-0.461-0.073-0.684C49.973,55.865,49.961,55.822,49.952,55.783z   M65.818,53.502l-0.842,0.875c0.015,0.041,0.031,0.08,0.045,0.119c0.094,0.211,0.209,0.412,0.342,0.598  c0.18,0.242,0.376,0.467,0.596,0.676c0.213,0.207,0.449,0.395,0.699,0.562c0.189,0.127,0.397,0.232,0.611,0.314  c0.017,0.008,0.035,0.014,0.057,0.02l1.047,0.355c0.094,0.031,0.201-0.021,0.232-0.115c0.014-0.041,0.012-0.086-0.003-0.126  l-0.397-1.032c-0.008-0.018-0.015-0.037-0.024-0.055c-0.089-0.211-0.206-0.412-0.342-0.598c-0.176-0.242-0.372-0.469-0.591-0.676  c-0.215-0.207-0.449-0.395-0.699-0.562c-0.191-0.127-0.397-0.232-0.613-0.314C65.898,53.527,65.855,53.514,65.818,53.502z   M71.39,46.731l1.21-0.087c0.016-0.039,0.03-0.079,0.045-0.12c0.074-0.216,0.123-0.441,0.148-0.671  c0.031-0.299,0.033-0.599,0.014-0.898c-0.021-0.298-0.07-0.595-0.145-0.886c-0.052-0.222-0.137-0.438-0.238-0.644  c-0.01-0.018-0.021-0.035-0.029-0.053l-0.541-0.965c-0.049-0.088-0.162-0.12-0.25-0.071c-0.038,0.021-0.066,0.055-0.08,0.096  l-0.398,1.032c-0.006,0.019-0.014,0.036-0.02,0.057c-0.074,0.216-0.123,0.442-0.148,0.67c-0.031,0.3-0.034,0.6-0.015,0.898  c0.022,0.299,0.07,0.596,0.141,0.887c0.056,0.224,0.138,0.438,0.243,0.644C71.348,46.658,71.369,46.695,71.39,46.731z   M84.535,45.387l-0.876,0.836c0.01,0.041,0.024,0.08,0.038,0.119c0.082,0.217,0.188,0.422,0.313,0.613  c0.165,0.25,0.352,0.485,0.558,0.703c0.209,0.217,0.434,0.416,0.673,0.595c0.186,0.137,0.387,0.251,0.598,0.342  c0.019,0.009,0.035,0.017,0.052,0.024l1.035,0.401c0.09,0.036,0.199-0.01,0.234-0.105c0.02-0.039,0.02-0.083,0.005-0.124  l-0.349-1.049c-0.008-0.02-0.014-0.037-0.021-0.056c-0.08-0.217-0.188-0.421-0.313-0.613c-0.165-0.25-0.352-0.483-0.558-0.702  c-0.207-0.218-0.432-0.416-0.672-0.595c-0.187-0.136-0.388-0.251-0.599-0.343C84.615,45.417,84.578,45.401,84.535,45.387z   M28.007,45.04l0.97-0.724c-0.007-0.042-0.014-0.084-0.025-0.125c-0.052-0.223-0.132-0.439-0.234-0.645  c-0.134-0.27-0.291-0.525-0.471-0.766s-0.38-0.465-0.598-0.671c-0.165-0.157-0.352-0.297-0.548-0.413  c-0.019-0.01-0.035-0.019-0.052-0.028l-0.975-0.523c-0.091-0.049-0.201-0.015-0.249,0.075c-0.023,0.037-0.025,0.081-0.019,0.123  l0.221,1.083c0.004,0.02,0.009,0.04,0.011,0.058c0.056,0.226,0.134,0.44,0.239,0.647c0.133,0.267,0.292,0.522,0.471,0.763  c0.178,0.242,0.375,0.466,0.595,0.672c0.169,0.158,0.352,0.298,0.551,0.413C27.93,45,27.967,45.02,28.007,45.04z M56.059,52.068  l1.209,0.004c0.02-0.038,0.039-0.076,0.057-0.115c0.088-0.211,0.154-0.432,0.197-0.66c0.052-0.293,0.076-0.593,0.08-0.893  c0-0.299-0.023-0.6-0.078-0.896c-0.039-0.227-0.101-0.447-0.193-0.659c-0.006-0.02-0.014-0.037-0.023-0.055l-0.469-1.002  c-0.043-0.093-0.15-0.132-0.242-0.088c-0.039,0.017-0.07,0.049-0.087,0.087l-0.476,0.999c-0.007,0.019-0.014,0.037-0.021,0.054  c-0.091,0.212-0.158,0.433-0.201,0.659c-0.051,0.296-0.075,0.596-0.075,0.895c-0.005,0.3,0.024,0.6,0.073,0.895  c0.039,0.227,0.105,0.449,0.193,0.66C56.02,51.994,56.036,52.031,56.059,52.068z M45.096,49.192l0.834,0.878  c0.042-0.012,0.08-0.024,0.12-0.04c0.218-0.08,0.422-0.186,0.616-0.312c0.249-0.166,0.484-0.354,0.699-0.559  c0.218-0.207,0.418-0.432,0.598-0.672c0.138-0.186,0.25-0.386,0.345-0.597c0.007-0.019,0.014-0.036,0.021-0.055l0.405-1.031  c0.034-0.094-0.011-0.2-0.107-0.237c-0.038-0.016-0.084-0.017-0.123-0.003l-1.05,0.349c-0.019,0.006-0.04,0.013-0.056,0.019  c-0.215,0.081-0.422,0.186-0.613,0.313c-0.249,0.164-0.484,0.354-0.703,0.559c-0.216,0.207-0.417,0.432-0.593,0.674  c-0.138,0.184-0.253,0.383-0.345,0.594C45.124,49.111,45.11,49.151,45.096,49.192z M19.928,52.207l-0.84,0.875  c0.014,0.041,0.031,0.08,0.045,0.118c0.092,0.212,0.208,0.411,0.34,0.598c0.18,0.241,0.377,0.468,0.595,0.675  c0.215,0.208,0.45,0.396,0.699,0.562c0.191,0.128,0.394,0.234,0.613,0.316c0.017,0.006,0.034,0.013,0.052,0.018l1.05,0.355  c0.096,0.031,0.201-0.019,0.234-0.115c0.014-0.041,0.01-0.085-0.004-0.124l-0.398-1.034c-0.005-0.018-0.014-0.036-0.024-0.053  c-0.089-0.213-0.204-0.412-0.342-0.598c-0.174-0.242-0.371-0.469-0.591-0.676c-0.216-0.207-0.45-0.396-0.699-0.562  c-0.19-0.127-0.398-0.234-0.612-0.316C20.008,52.232,19.966,52.219,19.928,52.207z"/><g><path fill="#E3D26F" d="M24.33,57.385l0.12-0.125c0.07-0.072,0.186-0.076,0.26-0.007l1.94,1.858c0.075,0.07,0.075,0.188,0.004,0.261l-0.121,0.125   c-0.07,0.073-0.186,0.076-0.259,0.006l-1.938-1.858C24.264,57.574,24.259,57.458,24.33,57.385z"/></g><g><path fill="#E3D26F" d="M24.924,52.989l-0.088-0.149c-0.052-0.087-0.024-0.199,0.061-0.252l2.302-1.388c0.084-0.052,0.197-0.024,0.249,0.062   l0.093,0.15c0.052,0.086,0.024,0.199-0.065,0.251l-2.297,1.388C25.089,53.104,24.977,53.076,24.924,52.989z"/></g><g><path fill="#E3D26F" d="M20.083,58.041l-0.15-0.084c-0.088-0.047-0.201-0.016-0.25,0.074l-1.287,2.357c-0.049,0.089-0.018,0.199,0.07,0.249   l0.155,0.083c0.089,0.048,0.201,0.016,0.249-0.073l1.288-2.356C20.205,58.202,20.174,58.09,20.083,58.041z"/></g></svg>